<svg width="19" height="20" viewBox="0 0 19 20" fill="none" xmlns="http://www.w3.org/2000/svg">
<path d="M7.95948 15.9624C6.26146 15.9624 4.93488 15.4173 3.97974 14.3271C3.0246 13.2369 2.54703 11.5388 2.54703 9.233V2.24313L0.752533 1.83792V0H2.54703H5.39797V9.26194C5.39797 10.931 5.64399 12.0791 6.13603 12.7062C6.62808 13.3333 7.39508 13.6469 8.43705 13.6469C9.45007 13.6469 10.2846 13.4443 10.9407 13.0391C11.6064 12.6242 12.1081 12.0405 12.4457 11.288V2.24313L10.3473 1.83792V0H12.4457H15.2967V13.4298L17.0912 13.835V15.6585H12.7352L12.547 13.343C12.055 14.1823 11.4182 14.8288 10.6368 15.2822C9.86493 15.7356 8.9725 15.9624 7.95948 15.9624Z" fill="white"/>
<path d="M0 18.5528H18.0174V20H0V18.5528Z" fill="white"/>
</svg>
