<svg xmlns="http://www.w3.org/2000/svg" width="48" height="40" viewBox="0 0 48 40">
  <g id="Group_4" data-name="Group 4" transform="translate(-242.402 -2342.739)">
    <path id="Path_1" data-name="Path 1" d="M381.019,22.916c0,1.849-.872,2.933-2.774,2.933h-2.378v-14.9h2.378c1.9,0,2.774,1.083,2.774,2.933Zm4.967.37V13.749c0-3.857-2.563-6.949-7.371-6.949H370.9V29.97h7.715c4.809,0,7.371-2.774,7.371-6.684" transform="translate(-95.584 2336.098)" fill="#231f20"/>
    <path id="Path_2" data-name="Path 2" d="M174.464,15.017c0,1.4-.687,2.061-1.981,2.061h-2.616V10.71h2.827c1.295,0,1.77.74,1.77,1.876ZM180.356,30.1V28.649a2.933,2.933,0,0,1-.978-2.378V22.494a3.9,3.9,0,0,0-3.091-3.831,3.683,3.683,0,0,0,2.985-3.857V12.3c0-3.329-2.272-5.5-6.024-5.5H164.9V29.97h4.967V20.512h2.668a2.025,2.025,0,0,1,2.061,2.272v3.8c0,2.166.766,3.54,2.774,3.54h2.985Z" transform="translate(93.709 2335.939)" fill="#231f20"/>
    <path id="Path_3" data-name="Path 3" d="M4.3,6.8v4.254H9.32V29.971h4.967V11.054h4.967V6.8Z" transform="translate(238.102 2335.939)" fill="#231f20"/>
    <path id="Path_10" data-name="Path 10" d="M522.65,117.082h-2.469l-4.793-8.448h-.073v8.448h-2.251V104.52h3.123l4.139,7.42v-7.42h2.251v12.562Zm5.3-10.211v2.571h4.72v2.351h-4.72v2.792h5.955v2.424h-8.859V104.447h8.859v2.424h-5.955Zm19.534,10.211h-2.832l-2.033-8.3h-.073l-1.961,8.3h-2.832l-3.2-12.562h2.977l1.888,8.448,2.033-8.448h2.687l2.106,8.448h.073l.073-.588,1.815-7.934h2.4Zm10.747-9.036a1.982,1.982,0,0,0-2.106-1.469c-.8,0-1.743.22-1.743,1.175,0,.882,1.089,1.1,1.815,1.249a10,10,0,0,1,3.268,1.028,3.4,3.4,0,0,1,1.6,2.938,4.02,4.02,0,0,1-1.525,3.159,5.7,5.7,0,0,1-3.631,1.028c-2.324,0-4.43-1.028-5.011-3.453l2.687-.588a2.345,2.345,0,0,0,2.614,1.763c.8,0,1.961-.294,1.961-1.322s-1.38-1.249-2.179-1.4c-2.178-.441-4.357-1.1-4.357-3.893a3.718,3.718,0,0,1,1.307-2.938,4.716,4.716,0,0,1,3.122-1.028c2.179,0,3.921.735,4.72,2.938Z" transform="translate(-270.663 2265.583)" fill="#da3833"/>
  </g>
</svg>
